<svg xmlns="http://www.w3.org/2000/svg" xmlns:xlink="http://www.w3.org/1999/xlink" width="500" zoomAndPan="magnify" viewBox="0 0 375 374.999991" height="500" preserveAspectRatio="xMidYMid meet" version="1.0"><defs><clipPath id="d4223c408e"><path d="M 42 294 L 95 294 L 95 365.128906 L 42 365.128906 Z M 42 294 " clip-rule="nonzero"/></clipPath><clipPath id="b32a451fca"><path d="M 123 251 L 177 251 L 177 365.128906 L 123 365.128906 Z M 123 251 " clip-rule="nonzero"/></clipPath><clipPath id="54014866a7"><path d="M 205 271 L 258 271 L 258 365.128906 L 205 365.128906 Z M 205 271 " clip-rule="nonzero"/></clipPath><clipPath id="8bf13b7f5d"><path d="M 286 178 L 340 178 L 340 365.128906 L 286 365.128906 Z M 286 178 " clip-rule="nonzero"/></clipPath></defs><path fill="#191919" d="M 5.847656 236.546875 C 2.324219 236.546875 0 238.871094 0 242.394531 C 0 245.914062 2.324219 248.238281 5.847656 248.238281 C 149.042969 251.761719 261.84375 185.09375 347.777344 72.324219 L 357.707031 58.871094 L 362.359375 88.101562 C 362.957031 91.027344 365.3125 92.785156 368.203125 92.785156 L 369.398438 92.785156 C 372.289062 92.1875 374.648438 89.265625 374.050781 85.746094 L 367.042969 42.496094 C 366.445312 39.574219 363.554688 37.25 360.03125 37.8125 L 316.785156 44.855469 C 313.863281 45.421875 311.535156 48.34375 312.101562 51.863281 C 312.699219 54.789062 315.589844 57.113281 319.109375 56.546875 L 348.339844 51.863281 L 338.972656 65.316406 C 248.988281 182.207031 137.351562 240.066406 5.847656 236.546875 " fill-opacity="1" fill-rule="nonzero"/><g clip-path="url(#d4223c408e)"><path fill="#191919" d="M 83.007812 353.4375 L 53.777344 353.4375 L 53.777344 306.101562 L 83.007812 306.101562 Z M 47.929688 294.410156 C 44.410156 294.410156 42.085938 296.734375 42.085938 300.257812 L 42.085938 359.28125 C 42.085938 362.769531 44.410156 365.128906 47.929688 365.128906 L 88.855469 365.128906 C 92.339844 365.128906 94.699219 362.769531 94.699219 359.28125 L 94.699219 300.257812 C 94.699219 296.734375 92.339844 294.410156 88.855469 294.410156 L 47.929688 294.410156 " fill-opacity="1" fill-rule="nonzero"/></g><g clip-path="url(#b32a451fca)"><path fill="#191919" d="M 164.820312 353.4375 L 135.589844 353.4375 L 135.589844 262.820312 L 164.820312 262.820312 Z M 129.742188 251.164062 C 126.253906 251.164062 123.898438 253.488281 123.898438 257.007812 L 123.898438 359.28125 C 123.898438 362.769531 126.253906 365.128906 129.742188 365.128906 L 170.664062 365.128906 C 174.1875 365.128906 176.511719 362.769531 176.511719 359.28125 L 176.511719 257.007812 C 176.511719 253.488281 174.1875 251.164062 170.664062 251.164062 L 129.742188 251.164062 " fill-opacity="1" fill-rule="nonzero"/></g><g clip-path="url(#54014866a7)"><path fill="#191919" d="M 246.066406 353.4375 L 216.835938 353.4375 L 216.835938 283.316406 L 246.066406 283.316406 Z M 210.992188 271.625 C 207.503906 271.625 205.144531 273.949219 205.144531 277.46875 L 205.144531 359.28125 C 205.144531 362.769531 207.503906 365.128906 210.992188 365.128906 L 251.914062 365.128906 C 255.402344 365.128906 257.757812 362.769531 257.757812 359.28125 L 257.757812 277.46875 C 257.757812 273.949219 255.402344 271.625 251.914062 271.625 L 210.992188 271.625 " fill-opacity="1" fill-rule="nonzero"/></g><g clip-path="url(#8bf13b7f5d)"><path fill="#191919" d="M 327.878906 353.4375 L 298.648438 353.4375 L 298.648438 189.777344 L 327.878906 189.777344 Z M 292.800781 178.121094 C 289.316406 178.121094 286.957031 180.445312 286.957031 183.964844 L 286.957031 359.28125 C 286.957031 362.804688 289.316406 365.128906 292.800781 365.128906 L 333.726562 365.128906 C 337.214844 365.128906 339.570312 362.804688 339.570312 359.28125 L 339.570312 183.964844 C 339.570312 180.445312 337.214844 178.121094 333.726562 178.121094 L 292.800781 178.121094 " fill-opacity="1" fill-rule="nonzero"/></g><path fill="#191919" d="M 104.035156 21.472656 C 144.359375 21.472656 177.109375 54.1875 177.109375 94.515625 C 177.109375 134.839844 144.359375 167.589844 104.035156 167.589844 C 63.710938 167.558594 30.992188 134.839844 30.992188 94.515625 C 30.992188 54.1875 63.710938 21.472656 104.035156 21.472656 Z M 104.035156 179.25 C 150.800781 179.25 188.800781 141.28125 188.800781 94.515625 C 188.800781 47.777344 150.800781 9.777344 104.035156 9.777344 C 57.296875 9.777344 19.296875 47.777344 19.296875 94.515625 C 19.296875 141.28125 57.296875 179.25 104.035156 179.25 " fill-opacity="1" fill-rule="nonzero"/><path fill="#191919" d="M 104.035156 126.667969 C 97.023438 126.667969 91.179688 120.820312 91.179688 113.8125 C 91.179688 110.292969 88.855469 107.964844 85.332031 107.964844 C 81.84375 107.964844 79.488281 110.292969 79.488281 113.8125 C 79.488281 125.503906 87.65625 134.839844 98.1875 137.761719 L 98.1875 142.445312 C 98.1875 145.964844 100.546875 148.292969 104.035156 148.292969 C 107.554688 148.292969 109.878906 145.964844 109.878906 142.445312 L 109.878906 137.761719 C 120.410156 134.839844 128.582031 125.503906 128.582031 113.8125 C 128.582031 100.359375 117.488281 89.265625 104.035156 89.265625 C 97.023438 89.265625 91.179688 83.417969 91.179688 76.410156 C 91.179688 69.402344 97.023438 63.554688 104.035156 63.554688 C 111.042969 63.554688 116.886719 69.402344 116.886719 76.410156 C 116.886719 79.898438 119.246094 82.257812 122.734375 82.257812 C 126.253906 82.257812 128.582031 79.898438 128.582031 76.410156 C 128.582031 64.71875 120.410156 55.351562 109.878906 52.429688 L 109.878906 47.179688 C 109.878906 43.660156 107.554688 41.335938 104.035156 41.335938 C 100.546875 41.335938 98.1875 43.660156 98.1875 47.179688 L 98.1875 51.863281 C 87.65625 54.789062 79.488281 64.121094 79.488281 75.8125 C 79.488281 89.265625 90.613281 100.359375 104.035156 100.359375 C 111.042969 100.359375 116.886719 106.207031 116.886719 113.214844 C 116.886719 120.820312 111.042969 126.667969 104.035156 126.667969 " fill-opacity="1" fill-rule="nonzero"/></svg>