<svg xmlns="http://www.w3.org/2000/svg" xmlns:xlink="http://www.w3.org/1999/xlink" width="500" zoomAndPan="magnify" viewBox="0 0 375 374.999991" height="500" preserveAspectRatio="xMidYMid meet" version="1.0"><path fill="#191919" d="M 344.851562 85.726562 L 364.800781 65.785156 C 368.132812 62.453125 369.386719 57.566406 368.078125 53.046875 C 366.761719 48.515625 363.097656 45.0625 358.488281 44.023438 L 343.488281 40.660156 L 352.082031 32.066406 C 354.609375 29.539062 354.609375 25.445312 352.082031 22.929688 C 349.554688 20.398438 345.460938 20.398438 342.941406 22.929688 L 334.351562 31.519531 L 330.984375 16.519531 C 329.957031 11.914062 326.496094 8.25 321.964844 6.933594 C 317.441406 5.613281 312.558594 6.878906 309.226562 10.210938 L 289.273438 30.160156 C 258.933594 10.480469 223.894531 0 187.5 0 C 84.105469 0 0 84.105469 0 187.5 C 0 290.894531 84.105469 375 187.5 375 C 290.894531 375 375 290.894531 375 187.5 C 375 151.105469 364.519531 116.066406 344.851562 85.726562 Z M 355.648438 56.636719 L 320.015625 92.269531 C 318.792969 93.492188 317.164062 94.167969 315.4375 94.167969 L 289.972656 94.167969 L 332.65625 51.480469 Z M 232.757812 187.5 C 232.757812 212.453125 212.453125 232.757812 187.5 232.757812 C 162.546875 232.757812 142.242188 212.453125 142.242188 187.5 C 142.242188 162.546875 162.546875 142.242188 187.5 142.242188 C 197.644531 142.242188 207 145.640625 214.554688 151.308594 L 182.925781 182.9375 C 180.394531 185.464844 180.394531 189.558594 182.925781 192.074219 C 184.1875 193.339844 185.839844 193.972656 187.5 193.972656 C 189.160156 193.972656 190.8125 193.339844 192.074219 192.074219 L 223.703125 160.445312 C 229.359375 168 232.757812 177.355469 232.757812 187.5 Z M 223.777344 142.082031 C 213.824219 134.109375 201.214844 129.3125 187.5 129.3125 C 155.410156 129.3125 129.3125 155.410156 129.3125 187.5 C 129.3125 219.589844 155.410156 245.6875 187.5 245.6875 C 219.589844 245.6875 245.6875 219.589844 245.6875 187.5 C 245.6875 173.785156 240.890625 161.1875 232.917969 151.222656 L 269.539062 114.601562 C 286.820312 134.023438 297.417969 159.515625 297.417969 187.5 C 297.417969 248.109375 248.109375 297.417969 187.5 297.417969 C 126.890625 297.417969 77.582031 248.109375 77.582031 187.5 C 77.582031 126.890625 126.890625 77.582031 187.5 77.582031 C 215.484375 77.582031 240.976562 88.179688 260.398438 105.460938 Z M 318.363281 19.351562 L 323.519531 42.34375 L 280.832031 85.027344 L 280.832031 59.5625 C 280.832031 57.835938 281.507812 56.207031 282.730469 54.984375 Z M 187.5 362.066406 C 91.242188 362.066406 12.933594 283.757812 12.933594 187.5 C 12.933594 91.242188 91.242188 12.933594 187.5 12.933594 C 220.46875 12.933594 252.214844 22.167969 279.910156 39.515625 L 273.589844 45.835938 C 269.925781 49.5 267.898438 54.363281 267.898438 59.5625 L 267.898438 94.84375 C 246.332031 76.09375 218.25 64.648438 187.5 64.648438 C 119.765625 64.648438 64.648438 119.753906 64.648438 187.5 C 64.648438 255.246094 119.765625 310.351562 187.5 310.351562 C 255.234375 310.351562 310.351562 255.234375 310.351562 187.5 C 310.351562 156.75 298.90625 128.667969 280.167969 107.101562 L 315.449219 107.101562 C 320.636719 107.101562 325.5 105.085938 329.164062 101.421875 L 335.496094 95.089844 C 352.84375 122.785156 362.078125 154.53125 362.078125 187.5 C 362.066406 283.757812 283.757812 362.066406 187.5 362.066406 Z M 187.5 362.066406 " fill-opacity="1" fill-rule="nonzero"/></svg>