<svg xmlns="http://www.w3.org/2000/svg" xmlns:xlink="http://www.w3.org/1999/xlink" width="500" zoomAndPan="magnify" viewBox="0 0 375 374.999991" height="500" preserveAspectRatio="xMidYMid meet" version="1.0"><defs><clipPath id="32c10cc7c3"><path d="M 14 13.125 L 357 13.125 L 357 175 L 14 175 Z M 14 13.125 " clip-rule="nonzero"/></clipPath><clipPath id="a8fb6f0d9f"><path d="M 310.335938 108.6875 L 374.851562 108.6875 L 374.851562 154.90625 L 310.335938 154.90625 Z M 310.335938 108.6875 " clip-rule="nonzero"/></clipPath><clipPath id="af0581796d"><path d="M 18.589844 200.882812 L 360.164062 200.882812 L 360.164062 361.863281 L 18.589844 361.863281 Z M 18.589844 200.882812 " clip-rule="nonzero"/></clipPath></defs><g clip-path="url(#32c10cc7c3)"><path fill="#282828" d="M 21.714844 174.085938 C 21.394531 174.085938 21.070312 174.066406 20.742188 174.023438 C 16.519531 173.492188 13.53125 169.636719 14.066406 165.414062 C 19.34375 123.636719 39.679688 85.160156 71.320312 57.066406 C 86.9375 43.199219 104.6875 32.359375 124.074219 24.847656 C 144.148438 17.066406 165.335938 13.125 187.046875 13.125 C 207.03125 13.125 226.625 16.476562 245.292969 23.09375 C 263.335938 29.484375 280.125 38.777344 295.195312 50.707031 C 310.121094 62.523438 322.945312 76.59375 333.3125 92.53125 C 343.863281 108.75 351.578125 126.460938 356.246094 145.175781 C 357.273438 149.304688 354.761719 153.484375 350.632812 154.511719 C 346.503906 155.542969 342.324219 153.03125 341.296875 148.902344 C 323.625 78.027344 260.195312 28.53125 187.046875 28.53125 C 107.148438 28.53125 39.351562 88.210938 29.347656 167.347656 C 28.855469 171.242188 25.539062 174.085938 21.714844 174.085938 " fill-opacity="1" fill-rule="nonzero"/></g><g clip-path="url(#a8fb6f0d9f)"><path fill="#282828" d="M 348.734375 154.789062 C 347.382812 154.789062 346.019531 154.433594 344.777344 153.6875 L 314.105469 135.28125 C 310.457031 133.09375 309.277344 128.363281 311.464844 124.714844 C 313.652344 121.066406 318.382812 119.882812 322.03125 122.074219 L 346.101562 136.515625 L 360.542969 112.449219 C 362.730469 108.800781 367.464844 107.617188 371.109375 109.804688 C 374.761719 111.996094 375.941406 116.726562 373.753906 120.375 L 355.347656 151.046875 C 353.902344 153.457031 351.351562 154.789062 348.734375 154.789062 " fill-opacity="1" fill-rule="nonzero"/></g><g clip-path="url(#af0581796d)"><path fill="#282828" d="M 187.046875 361.863281 C 167.472656 361.863281 148.25 358.640625 129.917969 352.285156 C 112.199219 346.144531 95.648438 337.203125 80.730469 325.710938 C 65.96875 314.339844 53.179688 300.765625 42.714844 285.359375 C 32.089844 269.71875 24.136719 252.585938 19.074219 234.433594 C 17.933594 230.335938 20.328125 226.085938 24.425781 224.945312 C 28.523438 223.800781 32.769531 226.199219 33.914062 230.296875 C 52.988281 298.6875 115.957031 346.457031 187.046875 346.457031 C 266.949219 346.457031 334.742188 286.777344 344.746094 207.640625 C 345.28125 203.417969 349.132812 200.425781 353.355469 200.964844 C 357.574219 201.496094 360.566406 205.351562 360.03125 209.570312 C 354.753906 251.351562 334.417969 289.832031 302.78125 317.921875 C 287.160156 331.789062 269.410156 342.628906 250.019531 350.140625 C 229.949219 357.921875 208.761719 361.863281 187.046875 361.863281 " fill-opacity="1" fill-rule="nonzero"/></g><path fill="#282828" d="M 8.953125 271.183594 C 7.675781 271.183594 6.375 270.863281 5.179688 270.191406 C 1.472656 268.105469 0.164062 263.40625 2.25 259.699219 L 19.8125 228.535156 C 21.898438 224.828125 26.597656 223.515625 30.304688 225.605469 L 61.46875 243.164062 C 65.175781 245.253906 66.484375 249.949219 64.398438 253.65625 C 62.308594 257.363281 57.613281 258.675781 53.90625 256.585938 L 29.453125 242.808594 L 15.671875 267.261719 C 14.257812 269.773438 11.644531 271.183594 8.953125 271.183594 " fill-opacity="1" fill-rule="nonzero"/><path fill="#282828" d="M 161.816406 240.636719 C 159.84375 240.636719 157.871094 239.882812 156.371094 238.378906 L 117.96875 199.980469 C 114.960938 196.972656 114.960938 192.09375 117.96875 189.085938 C 120.980469 186.078125 125.855469 186.078125 128.863281 189.085938 L 161.816406 222.039062 L 247.246094 136.609375 C 250.253906 133.601562 255.132812 133.601562 258.136719 136.609375 C 261.148438 139.617188 261.148438 144.492188 258.136719 147.503906 L 167.261719 238.378906 C 165.757812 239.882812 163.789062 240.636719 161.816406 240.636719 " fill-opacity="1" fill-rule="nonzero"/></svg>