<svg xmlns="http://www.w3.org/2000/svg" xmlns:xlink="http://www.w3.org/1999/xlink" width="500" zoomAndPan="magnify" viewBox="0 0 375 374.999991" height="500" preserveAspectRatio="xMidYMid meet" version="1.0"><path fill="#161616" d="M 365.90625 203.578125 C 365.90625 203.953125 365.871094 204.328125 365.796875 204.699219 C 365.722656 205.066406 365.613281 205.425781 365.46875 205.777344 C 365.324219 206.125 365.148438 206.457031 364.9375 206.769531 C 364.730469 207.082031 364.492188 207.371094 364.222656 207.640625 C 363.957031 207.90625 363.667969 208.144531 363.355469 208.351562 C 363.039062 208.5625 362.710938 208.738281 362.359375 208.882812 C 362.011719 209.027344 361.652344 209.136719 361.285156 209.210938 C 360.914062 209.285156 360.539062 209.320312 360.164062 209.320312 L 291.238281 209.320312 C 290.332031 209.320312 289.476562 209.121094 288.667969 208.714844 C 287.859375 208.3125 287.183594 207.746094 286.640625 207.023438 L 275.226562 191.804688 L 250.515625 246.167969 C 250.285156 246.667969 249.992188 247.128906 249.632812 247.546875 C 249.273438 247.960938 248.859375 248.320312 248.394531 248.617188 C 247.933594 248.917969 247.4375 249.144531 246.90625 249.300781 C 246.378906 249.457031 245.839844 249.53125 245.289062 249.53125 L 245.15625 249.53125 C 244.59375 249.519531 244.042969 249.425781 243.507812 249.25 C 242.972656 249.074219 242.472656 248.828125 242.011719 248.507812 C 241.550781 248.1875 241.144531 247.804688 240.792969 247.363281 C 240.441406 246.925781 240.160156 246.441406 239.953125 245.921875 L 209.691406 170.269531 L 186.976562 206.621094 C 186.449219 207.460938 185.753906 208.121094 184.886719 208.601562 C 184.023438 209.078125 183.09375 209.320312 182.105469 209.320312 L 141.898438 209.320312 C 141.519531 209.320312 141.148438 209.285156 140.777344 209.210938 C 140.40625 209.136719 140.046875 209.027344 139.699219 208.882812 C 139.351562 208.738281 139.019531 208.5625 138.707031 208.351562 C 138.394531 208.140625 138.101562 207.90625 137.835938 207.636719 C 137.570312 207.371094 137.332031 207.082031 137.121094 206.765625 C 136.914062 206.453125 136.734375 206.121094 136.589844 205.773438 C 136.445312 205.425781 136.335938 205.066406 136.265625 204.695312 C 136.191406 204.328125 136.152344 203.953125 136.152344 203.578125 C 136.152344 203.199219 136.191406 202.824219 136.265625 202.457031 C 136.335938 202.085938 136.445312 201.726562 136.589844 201.378906 C 136.734375 201.03125 136.914062 200.699219 137.121094 200.386719 C 137.332031 200.070312 137.570312 199.78125 137.835938 199.515625 C 138.101562 199.246094 138.394531 199.011719 138.707031 198.800781 C 139.019531 198.589844 139.351562 198.414062 139.699219 198.269531 C 140.046875 198.125 140.40625 198.015625 140.777344 197.941406 C 141.148438 197.871094 141.519531 197.832031 141.898438 197.832031 L 178.921875 197.832031 L 205.949219 154.578125 C 206.226562 154.125 206.5625 153.71875 206.957031 153.359375 C 207.347656 153 207.78125 152.703125 208.257812 152.46875 C 208.734375 152.230469 209.234375 152.066406 209.757812 151.96875 C 210.28125 151.871094 210.804688 151.851562 211.335938 151.902344 C 211.863281 151.953125 212.375 152.070312 212.871094 152.257812 C 213.367188 152.449219 213.828125 152.703125 214.253906 153.019531 C 214.679688 153.335938 215.054688 153.703125 215.378906 154.125 C 215.703125 154.542969 215.960938 155 216.160156 155.492188 L 245.625 229.160156 L 268.777344 178.222656 C 268.882812 177.996094 269 177.777344 269.128906 177.566406 C 269.261719 177.355469 269.40625 177.15625 269.5625 176.964844 C 269.71875 176.773438 269.890625 176.589844 270.070312 176.421875 C 270.25 176.25 270.441406 176.09375 270.644531 175.949219 C 270.84375 175.804688 271.054688 175.671875 271.273438 175.554688 C 271.492188 175.4375 271.714844 175.332031 271.945312 175.242188 C 272.179688 175.15625 272.414062 175.082031 272.65625 175.023438 C 272.898438 174.964844 273.140625 174.921875 273.386719 174.894531 C 273.632812 174.871094 273.882812 174.859375 274.128906 174.863281 C 274.378906 174.871094 274.625 174.890625 274.867188 174.929688 C 275.113281 174.964844 275.355469 175.019531 275.59375 175.085938 C 275.832031 175.15625 276.066406 175.238281 276.292969 175.339844 C 276.519531 175.4375 276.742188 175.550781 276.953125 175.679688 C 277.167969 175.804688 277.371094 175.945312 277.566406 176.101562 C 277.757812 176.253906 277.941406 176.417969 278.117188 176.597656 C 278.289062 176.773438 278.449219 176.960938 278.597656 177.160156 L 294.109375 197.839844 L 360.160156 197.839844 C 360.539062 197.839844 360.910156 197.875 361.28125 197.949219 C 361.652344 198.023438 362.011719 198.132812 362.359375 198.273438 C 362.707031 198.417969 363.039062 198.597656 363.351562 198.804688 C 363.664062 199.015625 363.957031 199.253906 364.222656 199.519531 C 364.488281 199.785156 364.726562 200.074219 364.9375 200.386719 C 365.144531 200.703125 365.324219 201.03125 365.46875 201.378906 C 365.613281 201.730469 365.722656 202.089844 365.796875 202.457031 C 365.871094 202.828125 365.90625 203.199219 365.90625 203.578125 Z M 183.785156 349.699219 C 184.054688 349.964844 184.34375 350.203125 184.65625 350.410156 C 184.96875 350.621094 185.300781 350.796875 185.648438 350.941406 C 186 351.085938 186.359375 351.195312 186.726562 351.269531 C 187.097656 351.34375 187.472656 351.378906 187.847656 351.378906 C 188.226562 351.378906 188.597656 351.34375 188.96875 351.269531 C 189.339844 351.195312 189.699219 351.085938 190.046875 350.941406 C 190.394531 350.796875 190.726562 350.621094 191.039062 350.410156 C 191.351562 350.203125 191.640625 349.964844 191.910156 349.699219 L 310.992188 230.613281 C 311.25 230.34375 311.480469 230.054688 311.683594 229.742188 C 311.886719 229.429688 312.058594 229.097656 312.195312 228.753906 C 312.332031 228.40625 312.4375 228.050781 312.507812 227.683594 C 312.574219 227.316406 312.609375 226.945312 312.605469 226.574219 C 312.601562 226.199219 312.5625 225.832031 312.488281 225.464844 C 312.410156 225.101562 312.300781 224.746094 312.15625 224.402344 C 312.015625 224.058594 311.835938 223.730469 311.628906 223.421875 C 311.421875 223.113281 311.1875 222.824219 310.921875 222.5625 C 310.660156 222.296875 310.371094 222.0625 310.0625 221.855469 C 309.753906 221.648438 309.425781 221.46875 309.082031 221.328125 C 308.738281 221.183594 308.382812 221.074219 308.019531 220.996094 C 307.652344 220.921875 307.285156 220.882812 306.910156 220.878906 C 306.539062 220.875 306.167969 220.910156 305.800781 220.976562 C 305.433594 221.046875 305.078125 221.148438 304.730469 221.289062 C 304.386719 221.425781 304.054688 221.597656 303.742188 221.800781 C 303.429688 222.003906 303.140625 222.234375 302.871094 222.492188 L 187.851562 337.511719 L 47.503906 197.171875 C 46.472656 196.132812 45.464844 195.074219 44.484375 193.988281 C 43.503906 192.898438 42.550781 191.789062 41.625 190.65625 C 40.695312 189.523438 39.800781 188.367188 38.929688 187.191406 C 38.058594 186.011719 37.21875 184.816406 36.40625 183.597656 C 35.597656 182.378906 34.816406 181.140625 34.066406 179.882812 C 33.316406 178.625 32.59375 177.351562 31.90625 176.058594 C 31.21875 174.769531 30.5625 173.460938 29.941406 172.136719 C 29.316406 170.8125 28.726562 169.472656 28.167969 168.121094 C 27.609375 166.765625 27.085938 165.398438 26.59375 164.019531 C 26.101562 162.640625 25.644531 161.253906 25.222656 159.851562 C 24.800781 158.449219 24.410156 157.039062 24.058594 155.617188 C 23.703125 154.199219 23.382812 152.769531 23.101562 151.332031 C 22.816406 149.898438 22.566406 148.453125 22.355469 147.007812 C 22.140625 145.558594 21.964844 144.105469 21.824219 142.648438 C 21.679688 141.191406 21.574219 139.734375 21.503906 138.269531 C 21.433594 136.808594 21.398438 135.34375 21.402344 133.882812 C 21.402344 132.417969 21.441406 130.953125 21.511719 129.492188 C 21.585938 128.03125 21.695312 126.570312 21.839844 125.113281 C 21.984375 123.65625 22.164062 122.207031 22.382812 120.757812 C 22.597656 119.308594 22.847656 117.867188 23.136719 116.433594 C 23.421875 114.996094 23.742188 113.570312 24.101562 112.148438 C 24.457031 110.730469 24.847656 109.320312 25.273438 107.921875 C 25.699219 106.519531 26.160156 105.128906 26.652344 103.753906 C 27.148438 102.375 27.675781 101.007812 28.234375 99.65625 C 28.796875 98.304688 29.390625 96.96875 30.015625 95.644531 C 30.644531 94.320312 31.300781 93.015625 31.992188 91.722656 C 32.683594 90.433594 33.40625 89.160156 34.15625 87.90625 C 34.910156 86.648438 35.695312 85.414062 36.507812 84.195312 C 37.320312 82.980469 38.164062 81.785156 39.035156 80.609375 C 39.910156 79.433594 40.808594 78.277344 41.738281 77.148438 C 42.667969 76.015625 43.621094 74.90625 44.605469 73.824219 C 45.589844 72.738281 46.597656 71.679688 47.632812 70.644531 C 48.667969 69.609375 49.726562 68.601562 50.8125 67.617188 C 51.898438 66.632812 53.003906 65.675781 54.136719 64.75 C 55.269531 63.820312 56.421875 62.917969 57.597656 62.046875 C 58.773438 61.175781 59.96875 60.332031 61.1875 59.519531 C 62.402344 58.707031 63.640625 57.921875 64.894531 57.167969 C 66.148438 56.417969 67.421875 55.695312 68.714844 55.003906 C 70.003906 54.3125 71.3125 53.65625 72.632812 53.027344 C 73.957031 52.402344 75.296875 51.808594 76.648438 51.246094 C 78 50.6875 79.363281 50.160156 80.742188 49.664062 C 82.121094 49.171875 83.511719 48.710938 84.910156 48.285156 C 86.3125 47.859375 87.722656 47.46875 89.140625 47.113281 C 90.558594 46.757812 91.988281 46.433594 93.421875 46.148438 C 94.859375 45.859375 96.300781 45.609375 97.75 45.394531 C 99.195312 45.179688 100.648438 44.996094 102.105469 44.851562 C 103.5625 44.707031 105.019531 44.597656 106.484375 44.527344 C 107.945312 44.453125 109.40625 44.414062 110.871094 44.414062 C 112.335938 44.414062 113.796875 44.445312 115.261719 44.515625 C 116.722656 44.585938 118.183594 44.695312 119.640625 44.835938 C 121.097656 44.976562 122.550781 45.15625 123.996094 45.367188 C 125.445312 45.582031 126.886719 45.828125 128.324219 46.113281 C 129.757812 46.398438 131.1875 46.714844 132.609375 47.070312 C 134.027344 47.425781 135.441406 47.8125 136.839844 48.234375 C 138.242188 48.660156 139.632812 49.117188 141.011719 49.605469 C 142.390625 50.097656 143.757812 50.621094 145.109375 51.179688 C 146.464844 51.738281 147.800781 52.332031 149.125 52.953125 C 150.449219 53.578125 151.757812 54.234375 153.050781 54.921875 C 154.34375 55.609375 155.617188 56.328125 156.875 57.078125 C 158.128906 57.828125 159.367188 58.609375 160.585938 59.421875 C 161.804688 60.234375 163.003906 61.074219 164.179688 61.945312 C 165.359375 62.8125 166.511719 63.710938 167.644531 64.636719 C 168.78125 65.566406 169.890625 66.519531 170.976562 67.5 C 172.0625 68.480469 173.125 69.488281 174.160156 70.519531 L 183.785156 80.148438 C 184.054688 80.414062 184.34375 80.652344 184.65625 80.863281 C 184.96875 81.074219 185.300781 81.25 185.648438 81.394531 C 186 81.539062 186.359375 81.648438 186.726562 81.71875 C 187.097656 81.792969 187.472656 81.832031 187.847656 81.832031 C 188.226562 81.832031 188.597656 81.792969 188.96875 81.71875 C 189.339844 81.648438 189.699219 81.539062 190.046875 81.394531 C 190.394531 81.25 190.726562 81.074219 191.039062 80.863281 C 191.351562 80.652344 191.640625 80.414062 191.910156 80.148438 L 201.535156 70.519531 C 203.429688 68.625 205.402344 66.816406 207.457031 65.101562 C 209.515625 63.382812 211.640625 61.761719 213.84375 60.234375 C 216.042969 58.707031 218.308594 57.28125 220.636719 55.960938 C 222.964844 54.636719 225.347656 53.421875 227.785156 52.3125 C 230.222656 51.203125 232.707031 50.203125 235.234375 49.316406 C 237.761719 48.429688 240.324219 47.660156 242.921875 47.003906 C 245.515625 46.347656 248.136719 45.808594 250.78125 45.386719 C 253.429688 44.964844 256.085938 44.664062 258.757812 44.480469 C 261.429688 44.296875 264.105469 44.234375 266.785156 44.292969 C 269.460938 44.347656 272.132812 44.527344 274.792969 44.824219 C 277.453125 45.121094 280.097656 45.535156 282.722656 46.070312 C 285.347656 46.605469 287.941406 47.253906 290.507812 48.023438 C 293.074219 48.789062 295.601562 49.671875 298.089844 50.664062 C 300.574219 51.660156 303.011719 52.761719 305.402344 53.976562 C 307.789062 55.1875 310.117188 56.503906 312.386719 57.925781 C 314.65625 59.347656 316.859375 60.871094 318.992188 62.488281 C 321.125 64.109375 323.183594 65.820312 325.160156 67.625 C 327.140625 69.429688 329.035156 71.316406 330.847656 73.292969 C 332.65625 75.265625 334.375 77.316406 336 79.445312 C 337.625 81.574219 339.152344 83.769531 340.582031 86.035156 C 342.011719 88.300781 343.335938 90.625 344.554688 93.011719 C 345.777344 95.394531 346.886719 97.828125 347.886719 100.3125 C 348.890625 102.796875 349.777344 105.320312 350.554688 107.886719 C 351.328125 110.449219 351.988281 113.042969 352.53125 115.664062 C 353.070312 118.289062 353.496094 120.929688 353.800781 123.589844 C 354.105469 126.25 354.292969 128.921875 354.355469 131.597656 C 354.421875 134.277344 354.367188 136.953125 354.195312 139.625 C 354.019531 142.296875 353.726562 144.957031 353.3125 147.601562 C 352.898438 150.25 352.367188 152.871094 351.71875 155.46875 C 351.070312 158.070312 350.308594 160.632812 349.429688 163.164062 C 348.550781 165.691406 347.558594 168.179688 346.457031 170.621094 C 345.355469 173.0625 344.144531 175.449219 342.832031 177.78125 C 342.632812 178.109375 342.46875 178.453125 342.34375 178.816406 C 342.214844 179.179688 342.125 179.546875 342.070312 179.929688 C 342.015625 180.308594 342 180.6875 342.023438 181.070312 C 342.046875 181.453125 342.105469 181.832031 342.203125 182.203125 C 342.300781 182.574219 342.4375 182.929688 342.605469 183.273438 C 342.773438 183.617188 342.976562 183.941406 343.210938 184.246094 C 343.445312 184.546875 343.707031 184.824219 344 185.078125 C 344.289062 185.328125 344.601562 185.546875 344.933594 185.734375 C 345.269531 185.925781 345.617188 186.078125 345.984375 186.195312 C 346.347656 186.316406 346.71875 186.394531 347.101562 186.441406 C 347.480469 186.484375 347.863281 186.488281 348.246094 186.457031 C 348.628906 186.421875 349.003906 186.355469 349.371094 186.246094 C 349.738281 186.136719 350.09375 185.996094 350.433594 185.816406 C 350.769531 185.636719 351.089844 185.425781 351.386719 185.183594 C 351.683594 184.941406 351.953125 184.671875 352.199219 184.375 C 352.441406 184.082031 352.652344 183.761719 352.832031 183.425781 C 354.171875 181.042969 355.410156 178.609375 356.550781 176.125 C 357.691406 173.640625 358.730469 171.117188 359.667969 168.546875 C 360.605469 165.980469 361.4375 163.378906 362.164062 160.746094 C 362.890625 158.109375 363.507812 155.449219 364.019531 152.765625 C 364.53125 150.078125 364.933594 147.378906 365.222656 144.660156 C 365.515625 141.945312 365.699219 139.21875 365.769531 136.488281 C 365.839844 133.753906 365.800781 131.023438 365.652344 128.292969 C 365.503906 125.566406 365.242188 122.847656 364.875 120.140625 C 364.503906 117.429688 364.027344 114.742188 363.4375 112.074219 C 362.851562 109.402344 362.15625 106.761719 361.355469 104.148438 C 360.554688 101.535156 359.648438 98.960938 358.640625 96.421875 C 357.628906 93.878906 356.519531 91.386719 355.308594 88.9375 C 354.09375 86.488281 352.785156 84.089844 351.382812 81.746094 C 349.976562 79.402344 348.476562 77.117188 346.886719 74.894531 C 345.296875 72.671875 343.617188 70.519531 341.851562 68.433594 C 340.085938 66.34375 338.242188 64.332031 336.3125 62.398438 C 296.914062 22.996094 232.8125 22.996094 193.414062 62.398438 L 187.847656 67.960938 L 182.285156 62.398438 C 142.890625 22.996094 78.78125 22.996094 39.382812 62.398438 C -0.015625 101.796875 -0.0117188 165.894531 39.382812 205.292969 Z M 183.785156 349.699219 " fill-opacity="1" fill-rule="nonzero"/></svg>