<svg xmlns="http://www.w3.org/2000/svg" xmlns:xlink="http://www.w3.org/1999/xlink" width="500" zoomAndPan="magnify" viewBox="0 0 375 374.999991" height="500" preserveAspectRatio="xMidYMid meet" version="1.0"><defs><clipPath id="dab925ef0f"><path d="M 160.195312 362.292969 L 208.503906 362.292969 L 208.503906 375 L 160.195312 375 Z M 160.195312 362.292969 " clip-rule="nonzero"/></clipPath><clipPath id="50722d6d3a"><path d="M 308.265625 136.515625 L 364.539062 136.515625 L 364.539062 158 L 308.265625 158 Z M 308.265625 136.515625 " clip-rule="nonzero"/></clipPath></defs><path fill="#191919" d="M 225.195312 328.175781 L 143.429688 328.175781 C 140.09375 328.175781 137.382812 325.46875 137.382812 322.128906 C 137.382812 318.792969 140.09375 316.078125 143.429688 316.078125 L 225.191406 316.078125 C 228.527344 316.078125 231.238281 318.792969 231.238281 322.128906 C 231.238281 325.46875 228.53125 328.175781 225.195312 328.175781 " fill-opacity="1" fill-rule="evenodd"/><path fill="#191919" d="M 220.796875 343.703125 L 147.824219 343.703125 C 144.484375 343.703125 141.777344 340.996094 141.777344 337.65625 C 141.777344 334.316406 144.484375 331.605469 147.824219 331.605469 L 220.796875 331.605469 C 224.136719 331.605469 226.84375 334.316406 226.84375 337.65625 C 226.84375 340.996094 224.136719 343.703125 220.796875 343.703125 " fill-opacity="1" fill-rule="evenodd"/><path fill="#191919" d="M 212.113281 359.375 L 156.507812 359.375 C 153.167969 359.375 150.460938 356.667969 150.460938 353.332031 C 150.460938 349.992188 153.167969 347.28125 156.507812 347.28125 L 212.117188 347.28125 C 215.457031 347.28125 218.164062 349.992188 218.164062 353.332031 C 218.164062 356.667969 215.457031 359.375 212.113281 359.375 " fill-opacity="1" fill-rule="evenodd"/><g clip-path="url(#dab925ef0f)"><path fill="#191919" d="M 202.332031 375.023438 L 166.289062 375.023438 C 162.949219 375.023438 160.238281 372.3125 160.238281 368.972656 C 160.238281 365.632812 162.949219 362.925781 166.289062 362.925781 L 202.332031 362.925781 C 205.671875 362.925781 208.382812 365.632812 208.382812 368.972656 C 208.382812 372.3125 205.671875 375.023438 202.332031 375.023438 " fill-opacity="1" fill-rule="evenodd"/></g><path fill="#191919" d="M 184.3125 57.070312 C 180.972656 57.070312 178.261719 54.363281 178.261719 51.027344 L 178.261719 6.050781 C 178.261719 2.710938 180.972656 0 184.3125 0 C 187.652344 0 190.359375 2.710938 190.359375 6.050781 L 190.359375 51.027344 C 190.359375 54.363281 187.652344 57.070312 184.3125 57.070312 " fill-opacity="1" fill-rule="evenodd"/><path fill="#191919" d="M 105.640625 85.710938 C 103.820312 85.710938 102.03125 84.898438 100.839844 83.351562 L 73.394531 47.664062 C 71.359375 45.015625 71.855469 41.21875 74.5 39.183594 C 77.148438 37.144531 80.945312 37.640625 82.984375 40.285156 L 110.429688 75.972656 C 112.464844 78.621094 111.96875 82.417969 109.324219 84.457031 C 108.21875 85.300781 106.921875 85.710938 105.640625 85.710938 " fill-opacity="1" fill-rule="evenodd"/><path fill="#191919" d="M 60.683594 156.195312 C 60.167969 156.195312 59.644531 156.128906 59.117188 155.988281 L 15.566406 144.335938 C 12.339844 143.46875 10.421875 140.160156 11.289062 136.925781 C 12.148438 133.703125 15.464844 131.78125 18.691406 132.648438 L 62.246094 144.300781 C 65.472656 145.167969 67.390625 148.480469 66.527344 151.710938 C 65.800781 154.410156 63.355469 156.195312 60.683594 156.195312 " fill-opacity="1" fill-rule="evenodd"/><path fill="#191919" d="M 26.363281 256.605469 C 23.984375 256.605469 21.730469 255.191406 20.769531 252.859375 C 19.492188 249.773438 20.964844 246.234375 24.054688 244.960938 L 65.722656 227.765625 C 68.808594 226.496094 72.34375 227.964844 73.617188 231.050781 C 74.894531 234.136719 73.421875 237.671875 70.335938 238.949219 L 28.667969 256.144531 C 27.914062 256.453125 27.128906 256.605469 26.363281 256.605469 " fill-opacity="1" fill-rule="evenodd"/><path fill="#191919" d="M 348.070312 256.585938 C 347.238281 256.585938 346.386719 256.414062 345.574219 256.042969 L 304.539062 237.390625 C 301.496094 236.007812 300.15625 232.421875 301.535156 229.378906 C 302.917969 226.339844 306.503906 224.992188 309.542969 226.375 L 350.578125 245.027344 C 353.621094 246.410156 354.960938 249.996094 353.582031 253.039062 C 352.570312 255.269531 350.371094 256.585938 348.070312 256.585938 " fill-opacity="1" fill-rule="evenodd"/><g clip-path="url(#50722d6d3a)"><path fill="#191919" d="M 314.308594 157.804688 C 311.492188 157.804688 308.96875 155.828125 308.386719 152.964844 C 307.71875 149.691406 309.832031 146.5 313.105469 145.828125 L 357.285156 136.816406 C 360.558594 136.152344 363.75 138.257812 364.417969 141.539062 C 365.085938 144.8125 362.972656 148.003906 359.699219 148.671875 L 315.519531 157.683594 C 315.109375 157.765625 314.707031 157.804688 314.308594 157.804688 " fill-opacity="1" fill-rule="evenodd"/></g><path fill="#191919" d="M 272.898438 88.765625 C 271.4375 88.765625 269.972656 88.238281 268.816406 87.175781 C 266.351562 84.921875 266.179688 81.097656 268.433594 78.632812 L 298.828125 45.410156 C 301.085938 42.945312 304.910156 42.777344 307.375 45.027344 C 309.839844 47.285156 310.007812 51.113281 307.753906 53.574219 L 277.359375 86.796875 C 276.164062 88.101562 274.535156 88.765625 272.898438 88.765625 " fill-opacity="1" fill-rule="evenodd"/><path fill="#191919" d="M 221.847656 304.464844 L 147.386719 304.464844 C 145.777344 304.464844 144.230469 303.824219 143.097656 302.683594 C 141.964844 301.539062 141.328125 299.992188 141.339844 298.378906 C 141.425781 284.023438 138.429688 271.609375 132.183594 260.445312 C 128.542969 253.929688 126.402344 251.488281 121.234375 245.589844 C 120.359375 244.585938 119.402344 243.492188 118.351562 242.285156 C 109.867188 233.789062 103.203125 223.910156 98.535156 212.910156 C 93.667969 201.449219 91.199219 189.273438 91.199219 176.730469 C 91.199219 164.1875 93.664062 152.027344 98.523438 140.570312 C 103.214844 129.511719 109.929688 119.574219 118.476562 111.050781 C 127.027344 102.523438 136.984375 95.828125 148.070312 91.152344 C 159.550781 86.308594 171.742188 83.855469 184.308594 83.855469 C 196.875 83.855469 209.066406 86.308594 220.546875 91.152344 C 231.632812 95.832031 241.589844 102.527344 250.136719 111.050781 C 258.6875 119.578125 265.402344 129.511719 270.09375 140.570312 C 274.957031 152.027344 277.417969 164.191406 277.417969 176.730469 C 277.417969 187.089844 275.71875 197.265625 272.367188 206.972656 C 269.125 216.363281 264.40625 225.136719 258.34375 233.0625 C 256.820312 235.046875 252.402344 240.273438 248.503906 244.878906 C 246.140625 247.679688 243.902344 250.320312 243.117188 251.296875 C 241.242188 253.625 239.492188 256.074219 237.046875 260.445312 C 230.800781 271.613281 227.808594 284.023438 227.898438 298.382812 C 227.90625 299.992188 227.273438 301.539062 226.136719 302.683594 C 225 303.824219 223.453125 304.464844 221.847656 304.464844 Z M 153.304688 292.367188 L 215.925781 292.367188 C 216.628906 278.378906 220.105469 265.949219 226.488281 254.535156 C 228.9375 250.164062 231.023438 247.03125 233.691406 243.710938 C 234.570312 242.621094 236.75 240.046875 239.273438 237.066406 C 242.894531 232.789062 247.398438 227.457031 248.742188 225.707031 C 259.589844 211.539062 265.324219 194.601562 265.324219 176.730469 C 265.324219 132.183594 228.984375 95.945312 184.316406 95.945312 C 139.644531 95.945312 103.300781 132.183594 103.300781 176.730469 C 103.300781 198.316406 111.734375 218.609375 127.050781 233.871094 C 127.15625 233.976562 127.257812 234.082031 127.351562 234.199219 C 128.441406 235.457031 129.429688 236.585938 130.335938 237.621094 C 135.589844 243.613281 138.476562 246.917969 142.738281 254.535156 C 149.125 265.949219 152.605469 278.378906 153.304688 292.367188 " fill-opacity="1" fill-rule="evenodd"/></svg>