<svg xmlns="http://www.w3.org/2000/svg" xmlns:xlink="http://www.w3.org/1999/xlink" width="500" zoomAndPan="magnify" viewBox="0 0 375 374.999991" height="500" preserveAspectRatio="xMidYMid meet" version="1.0"><path fill="#191919" d="M 40.714844 -0.179688 C 40.285156 -0.175781 39.863281 -0.136719 39.445312 -0.0507812 C 39.027344 0.03125 38.621094 0.15625 38.230469 0.320312 C 37.835938 0.484375 37.460938 0.6875 37.109375 0.925781 C 36.753906 1.160156 36.425781 1.433594 36.125 1.734375 C 35.828125 2.035156 35.558594 2.367188 35.324219 2.722656 C 35.085938 3.074219 34.886719 3.449219 34.726562 3.84375 C 34.5625 4.238281 34.441406 4.644531 34.359375 5.066406 C 34.277344 5.484375 34.238281 5.90625 34.242188 6.332031 L 34.242188 96.664062 C 34.242188 97.089844 34.285156 97.507812 34.367188 97.925781 C 34.449219 98.34375 34.574219 98.746094 34.738281 99.140625 C 34.898438 99.53125 35.097656 99.902344 35.335938 100.257812 C 35.570312 100.609375 35.839844 100.9375 36.140625 101.238281 C 36.441406 101.539062 36.765625 101.804688 37.121094 102.042969 C 37.472656 102.277344 37.847656 102.476562 38.238281 102.640625 C 38.628906 102.804688 39.035156 102.925781 39.453125 103.011719 C 39.867188 103.09375 40.289062 103.136719 40.714844 103.136719 L 131.855469 103.136719 C 132.28125 103.136719 132.703125 103.097656 133.125 103.015625 C 133.542969 102.933594 133.949219 102.8125 134.34375 102.652344 C 134.738281 102.488281 135.113281 102.289062 135.46875 102.054688 C 135.820312 101.820312 136.152344 101.550781 136.453125 101.25 C 136.753906 100.949219 137.027344 100.621094 137.261719 100.269531 C 137.5 99.914062 137.703125 99.542969 137.867188 99.148438 C 138.03125 98.753906 138.15625 98.347656 138.238281 97.929688 C 138.324219 97.511719 138.367188 97.089844 138.367188 96.664062 L 138.367188 72.308594 C 138.367188 71.882812 138.324219 71.460938 138.238281 71.042969 C 138.15625 70.625 138.03125 70.21875 137.867188 69.824219 C 137.703125 69.429688 137.5 69.058594 137.265625 68.703125 C 137.027344 68.347656 136.753906 68.023438 136.453125 67.722656 C 136.152344 67.421875 135.824219 67.152344 135.46875 66.917969 C 135.113281 66.679688 134.738281 66.484375 134.34375 66.320312 C 133.949219 66.160156 133.542969 66.039062 133.125 65.957031 C 132.703125 65.875 132.28125 65.832031 131.855469 65.835938 C 131.433594 65.835938 131.011719 65.878906 130.597656 65.964844 C 130.179688 66.046875 129.777344 66.171875 129.386719 66.335938 C 128.992188 66.5 128.621094 66.699219 128.269531 66.933594 C 127.917969 67.171875 127.589844 67.4375 127.292969 67.738281 C 126.992188 68.039062 126.722656 68.367188 126.488281 68.71875 C 126.253906 69.070312 126.054688 69.445312 125.890625 69.835938 C 125.730469 70.226562 125.605469 70.632812 125.523438 71.046875 C 125.4375 71.464844 125.398438 71.882812 125.398438 72.308594 L 125.398438 90.203125 L 47.222656 90.203125 L 47.222656 12.804688 L 86.855469 12.804688 C 87.28125 12.804688 87.703125 12.765625 88.121094 12.683594 C 88.539062 12.601562 88.945312 12.480469 89.339844 12.320312 C 89.734375 12.15625 90.109375 11.957031 90.464844 11.722656 C 90.820312 11.488281 91.148438 11.21875 91.453125 10.917969 C 91.753906 10.617188 92.023438 10.289062 92.261719 9.9375 C 92.5 9.582031 92.699219 9.207031 92.863281 8.816406 C 93.027344 8.421875 93.152344 8.015625 93.238281 7.597656 C 93.320312 7.179688 93.363281 6.757812 93.363281 6.332031 C 93.367188 5.902344 93.324219 5.480469 93.242188 5.058594 C 93.160156 4.640625 93.039062 4.230469 92.875 3.835938 C 92.714844 3.441406 92.511719 3.066406 92.273438 2.707031 C 92.039062 2.351562 91.769531 2.023438 91.464844 1.722656 C 91.164062 1.417969 90.832031 1.148438 90.476562 0.910156 C 90.121094 0.671875 89.746094 0.472656 89.351562 0.308594 C 88.953125 0.148438 88.546875 0.0234375 88.125 -0.0585938 C 87.707031 -0.140625 87.28125 -0.179688 86.855469 -0.179688 Z M 142.976562 0.722656 C 142.632812 0.699219 142.292969 0.703125 141.949219 0.734375 C 141.09375 0.8125 140.285156 1.050781 139.523438 1.449219 C 138.761719 1.847656 138.105469 2.378906 137.554688 3.039062 L 96.050781 52.574219 L 81.6875 35.246094 C 81.414062 34.925781 81.113281 34.628906 80.78125 34.367188 C 80.449219 34.101562 80.097656 33.871094 79.722656 33.675781 C 79.347656 33.480469 78.957031 33.324219 78.546875 33.207031 C 78.140625 33.085938 77.726562 33.007812 77.304688 32.972656 C 76.886719 32.933594 76.464844 32.9375 76.042969 32.980469 C 75.621094 33.027344 75.210938 33.113281 74.804688 33.238281 C 74.402344 33.363281 74.011719 33.527344 73.640625 33.730469 C 73.269531 33.929688 72.917969 34.167969 72.59375 34.4375 C 72.265625 34.707031 71.972656 35.007812 71.703125 35.339844 C 71.4375 35.667969 71.207031 36.019531 71.007812 36.394531 C 70.8125 36.769531 70.652344 37.160156 70.53125 37.566406 C 70.410156 37.972656 70.328125 38.386719 70.289062 38.808594 C 70.25 39.230469 70.25 39.652344 70.292969 40.070312 C 70.335938 40.492188 70.417969 40.90625 70.542969 41.3125 C 70.667969 41.71875 70.828125 42.105469 71.027344 42.480469 C 71.226562 42.851562 71.460938 43.203125 71.730469 43.53125 L 91.070312 66.847656 C 91.375 67.214844 91.714844 67.542969 92.085938 67.835938 C 92.460938 68.128906 92.863281 68.375 93.292969 68.578125 C 93.722656 68.78125 94.167969 68.9375 94.632812 69.042969 C 95.09375 69.148438 95.5625 69.199219 96.039062 69.203125 C 96.511719 69.207031 96.980469 69.15625 97.445312 69.054688 C 97.910156 68.953125 98.359375 68.804688 98.789062 68.605469 C 99.21875 68.40625 99.625 68.164062 100 67.875 C 100.378906 67.589844 100.722656 67.261719 101.027344 66.902344 L 147.511719 11.363281 C 147.785156 11.035156 148.023438 10.683594 148.226562 10.308594 C 148.433594 9.933594 148.597656 9.542969 148.726562 9.136719 C 148.851562 8.730469 148.941406 8.316406 148.984375 7.890625 C 149.03125 7.46875 149.035156 7.042969 148.996094 6.617188 C 148.957031 6.195312 148.878906 5.777344 148.757812 5.367188 C 148.636719 4.957031 148.476562 4.566406 148.28125 4.1875 C 148.082031 3.808594 147.847656 3.457031 147.582031 3.125 C 147.3125 2.792969 147.015625 2.488281 146.6875 2.21875 C 145.613281 1.316406 144.375 0.820312 142.976562 0.722656 Z M 188.726562 45.011719 C 188.300781 45.015625 187.882812 45.058594 187.46875 45.140625 C 187.050781 45.226562 186.648438 45.347656 186.257812 45.511719 C 185.867188 45.675781 185.496094 45.875 185.144531 46.109375 C 184.789062 46.34375 184.464844 46.613281 184.164062 46.914062 C 183.867188 47.210938 183.597656 47.539062 183.363281 47.890625 C 183.125 48.242188 182.925781 48.613281 182.765625 49.003906 C 182.601562 49.394531 182.476562 49.796875 182.394531 50.214844 C 182.308594 50.628906 182.265625 51.050781 182.265625 51.472656 C 182.265625 51.898438 182.304688 52.320312 182.386719 52.738281 C 182.46875 53.15625 182.589844 53.5625 182.75 53.957031 C 182.910156 54.351562 183.109375 54.726562 183.34375 55.078125 C 183.578125 55.433594 183.847656 55.761719 184.148438 56.066406 C 184.445312 56.367188 184.773438 56.636719 185.125 56.875 C 185.480469 57.113281 185.851562 57.316406 186.246094 57.480469 C 186.636719 57.644531 187.042969 57.769531 187.460938 57.851562 C 187.878906 57.9375 188.300781 57.980469 188.726562 57.984375 L 335.066406 57.984375 C 335.492188 57.984375 335.917969 57.945312 336.335938 57.863281 C 336.757812 57.78125 337.164062 57.65625 337.5625 57.492188 C 337.957031 57.332031 338.332031 57.132812 338.6875 56.894531 C 339.046875 56.65625 339.375 56.386719 339.675781 56.082031 C 339.980469 55.78125 340.25 55.453125 340.488281 55.09375 C 340.722656 54.738281 340.925781 54.363281 341.085938 53.96875 C 341.25 53.570312 341.375 53.164062 341.457031 52.746094 C 341.539062 52.324219 341.578125 51.902344 341.574219 51.472656 C 341.574219 51.046875 341.53125 50.625 341.445312 50.207031 C 341.363281 49.789062 341.238281 49.386719 341.074219 48.992188 C 340.910156 48.601562 340.707031 48.226562 340.46875 47.875 C 340.230469 47.519531 339.960938 47.195312 339.660156 46.894531 C 339.355469 46.59375 339.027344 46.328125 338.671875 46.09375 C 338.316406 45.855469 337.945312 45.660156 337.550781 45.496094 C 337.15625 45.335938 336.75 45.214844 336.332031 45.132812 C 335.914062 45.050781 335.492188 45.011719 335.066406 45.011719 Z M 40.714844 136.257812 C 40.289062 136.257812 39.867188 136.300781 39.453125 136.382812 C 39.035156 136.46875 38.632812 136.589844 38.242188 136.753906 C 37.847656 136.914062 37.476562 137.113281 37.125 137.347656 C 36.773438 137.585938 36.445312 137.851562 36.144531 138.152344 C 35.84375 138.453125 35.578125 138.777344 35.339844 139.128906 C 35.105469 139.484375 34.902344 139.855469 34.742188 140.246094 C 34.578125 140.636719 34.453125 141.042969 34.371094 141.457031 C 34.285156 141.871094 34.242188 142.292969 34.242188 142.71875 L 34.242188 233.101562 C 34.242188 233.523438 34.285156 233.945312 34.371094 234.359375 C 34.453125 234.777344 34.578125 235.179688 34.742188 235.570312 C 34.902344 235.960938 35.105469 236.335938 35.339844 236.6875 C 35.578125 237.039062 35.84375 237.363281 36.144531 237.664062 C 36.445312 237.964844 36.773438 238.230469 37.125 238.46875 C 37.476562 238.703125 37.847656 238.902344 38.242188 239.066406 C 38.632812 239.226562 39.035156 239.351562 39.453125 239.433594 C 39.867188 239.515625 40.289062 239.558594 40.714844 239.558594 L 131.855469 239.558594 C 132.28125 239.5625 132.703125 239.519531 133.121094 239.441406 C 133.539062 239.359375 133.945312 239.238281 134.339844 239.074219 C 134.734375 238.914062 135.109375 238.714844 135.464844 238.480469 C 135.816406 238.246094 136.148438 237.976562 136.449219 237.679688 C 136.75 237.378906 137.019531 237.050781 137.257812 236.699219 C 137.496094 236.34375 137.699219 235.972656 137.863281 235.578125 C 138.027344 235.1875 138.152344 234.78125 138.238281 234.363281 C 138.320312 233.949219 138.363281 233.527344 138.367188 233.101562 L 138.367188 208.730469 C 138.367188 208.304688 138.328125 207.878906 138.246094 207.460938 C 138.164062 207.039062 138.039062 206.632812 137.878906 206.234375 C 137.714844 205.839844 137.515625 205.464844 137.277344 205.109375 C 137.039062 204.753906 136.769531 204.421875 136.46875 204.121094 C 136.164062 203.816406 135.835938 203.546875 135.480469 203.308594 C 135.121094 203.074219 134.746094 202.871094 134.351562 202.710938 C 133.957031 202.546875 133.546875 202.425781 133.128906 202.339844 C 132.707031 202.257812 132.285156 202.21875 131.855469 202.222656 C 131.429688 202.222656 131.007812 202.265625 130.589844 202.351562 C 130.175781 202.433594 129.769531 202.558594 129.375 202.722656 C 128.984375 202.886719 128.609375 203.089844 128.257812 203.328125 C 127.90625 203.566406 127.578125 203.835938 127.277344 204.136719 C 126.976562 204.441406 126.710938 204.769531 126.476562 205.125 C 126.238281 205.480469 126.042969 205.851562 125.878906 206.246094 C 125.71875 206.640625 125.597656 207.046875 125.515625 207.464844 C 125.433594 207.882812 125.394531 208.304688 125.398438 208.730469 L 125.398438 226.589844 L 47.222656 226.589844 L 47.222656 149.226562 L 86.855469 149.226562 C 87.28125 149.230469 87.707031 149.1875 88.125 149.105469 C 88.546875 149.023438 88.953125 148.902344 89.351562 148.738281 C 89.746094 148.574219 90.121094 148.375 90.476562 148.136719 C 90.832031 147.902344 91.164062 147.628906 91.464844 147.328125 C 91.769531 147.023438 92.039062 146.695312 92.273438 146.339844 C 92.511719 145.984375 92.714844 145.609375 92.875 145.210938 C 93.039062 144.816406 93.160156 144.410156 93.242188 143.988281 C 93.324219 143.570312 93.367188 143.144531 93.363281 142.71875 C 93.363281 142.292969 93.320312 141.871094 93.234375 141.453125 C 93.152344 141.035156 93.027344 140.628906 92.863281 140.238281 C 92.695312 139.84375 92.496094 139.472656 92.257812 139.117188 C 92.019531 138.765625 91.75 138.4375 91.449219 138.140625 C 91.144531 137.839844 90.816406 137.570312 90.460938 137.335938 C 90.105469 137.101562 89.730469 136.902344 89.339844 136.742188 C 88.945312 136.578125 88.539062 136.457031 88.121094 136.378906 C 87.703125 136.296875 87.28125 136.253906 86.855469 136.257812 Z M 142.976562 137.15625 C 142.632812 137.132812 142.292969 137.136719 141.949219 137.167969 C 141.09375 137.246094 140.285156 137.480469 139.527344 137.878906 C 138.765625 138.277344 138.109375 138.804688 137.554688 139.460938 L 96.050781 189.011719 L 81.6875 171.683594 C 81.414062 171.359375 81.117188 171.0625 80.785156 170.796875 C 80.457031 170.53125 80.105469 170.296875 79.730469 170.101562 C 79.355469 169.902344 78.964844 169.742188 78.558594 169.621094 C 78.152344 169.5 77.738281 169.421875 77.316406 169.378906 C 76.894531 169.339844 76.472656 169.34375 76.050781 169.382812 C 75.628906 169.425781 75.21875 169.511719 74.8125 169.632812 C 74.40625 169.757812 74.019531 169.917969 73.644531 170.121094 C 73.269531 170.320312 72.921875 170.554688 72.59375 170.824219 C 72.265625 171.09375 71.964844 171.394531 71.695312 171.726562 C 71.425781 172.054688 71.191406 172.410156 70.992188 172.789062 C 70.789062 173.164062 70.628906 173.558594 70.507812 173.964844 C 70.386719 174.375 70.304688 174.792969 70.265625 175.214844 C 70.222656 175.640625 70.226562 176.066406 70.269531 176.488281 C 70.3125 176.914062 70.398438 177.332031 70.523438 177.738281 C 70.648438 178.144531 70.816406 178.535156 71.019531 178.914062 C 71.222656 179.289062 71.457031 179.640625 71.730469 179.96875 L 91.070312 203.273438 C 91.375 203.636719 91.714844 203.964844 92.09375 204.253906 C 92.46875 204.542969 92.871094 204.789062 93.300781 204.988281 C 93.730469 205.191406 94.179688 205.34375 94.640625 205.445312 C 95.105469 205.550781 95.574219 205.601562 96.050781 205.601562 C 96.523438 205.601562 96.992188 205.550781 97.457031 205.445312 C 97.921875 205.34375 98.367188 205.191406 98.796875 204.988281 C 99.226562 204.789062 99.628906 204.542969 100.007812 204.253906 C 100.382812 203.964844 100.722656 203.636719 101.027344 203.273438 L 147.511719 147.796875 C 147.785156 147.46875 148.023438 147.117188 148.226562 146.746094 C 148.433594 146.371094 148.597656 145.980469 148.726562 145.574219 C 148.855469 145.164062 148.941406 144.75 148.984375 144.328125 C 149.03125 143.902344 149.035156 143.476562 148.996094 143.054688 C 148.957031 142.628906 148.878906 142.210938 148.757812 141.800781 C 148.636719 141.394531 148.476562 141 148.28125 140.621094 C 148.082031 140.246094 147.847656 139.890625 147.582031 139.558594 C 147.3125 139.226562 147.015625 138.925781 146.6875 138.652344 C 145.613281 137.753906 144.375 137.253906 142.976562 137.15625 Z M 188.726562 181.449219 C 188.300781 181.449219 187.882812 181.492188 187.46875 181.578125 C 187.050781 181.660156 186.648438 181.785156 186.257812 181.949219 C 185.867188 182.109375 185.496094 182.308594 185.144531 182.546875 C 184.789062 182.78125 184.464844 183.046875 184.164062 183.347656 C 183.867188 183.648438 183.597656 183.972656 183.363281 184.324219 C 183.125 184.675781 182.925781 185.050781 182.765625 185.441406 C 182.601562 185.832031 182.476562 186.234375 182.394531 186.648438 C 182.308594 187.066406 182.265625 187.484375 182.265625 187.910156 C 182.265625 188.335938 182.304688 188.757812 182.386719 189.175781 C 182.46875 189.59375 182.589844 189.996094 182.75 190.390625 C 182.910156 190.785156 183.109375 191.160156 183.34375 191.515625 C 183.578125 191.871094 183.847656 192.199219 184.148438 192.5 C 184.445312 192.804688 184.773438 193.074219 185.125 193.3125 C 185.480469 193.550781 185.851562 193.75 186.246094 193.914062 C 186.636719 194.078125 187.042969 194.203125 187.460938 194.289062 C 187.878906 194.375 188.300781 194.417969 188.726562 194.417969 L 335.066406 194.417969 C 335.492188 194.421875 335.917969 194.378906 336.335938 194.296875 C 336.757812 194.214844 337.164062 194.09375 337.5625 193.929688 C 337.957031 193.765625 338.332031 193.566406 338.6875 193.328125 C 339.046875 193.09375 339.375 192.820312 339.675781 192.519531 C 339.980469 192.214844 340.25 191.886719 340.488281 191.53125 C 340.722656 191.175781 340.925781 190.800781 341.085938 190.402344 C 341.25 190.007812 341.375 189.601562 341.457031 189.179688 C 341.539062 188.761719 341.578125 188.335938 341.574219 187.910156 C 341.574219 187.484375 341.53125 187.0625 341.445312 186.644531 C 341.363281 186.226562 341.238281 185.820312 341.074219 185.429688 C 340.910156 185.035156 340.707031 184.664062 340.46875 184.308594 C 340.230469 183.957031 339.960938 183.628906 339.660156 183.332031 C 339.355469 183.03125 339.027344 182.761719 338.671875 182.527344 C 338.316406 182.292969 337.945312 182.09375 337.550781 181.933594 C 337.15625 181.769531 336.75 181.648438 336.332031 181.570312 C 335.914062 181.488281 335.492188 181.445312 335.066406 181.449219 Z M 40.714844 272.691406 C 40.289062 272.695312 39.867188 272.734375 39.453125 272.820312 C 39.035156 272.902344 38.632812 273.027344 38.242188 273.1875 C 37.847656 273.351562 37.476562 273.550781 37.125 273.785156 C 36.773438 274.019531 36.445312 274.289062 36.144531 274.589844 C 35.84375 274.886719 35.578125 275.214844 35.339844 275.566406 C 35.105469 275.917969 34.902344 276.289062 34.742188 276.683594 C 34.578125 277.074219 34.453125 277.476562 34.371094 277.894531 C 34.285156 278.308594 34.242188 278.730469 34.242188 279.152344 L 34.242188 369.535156 C 34.242188 369.960938 34.285156 370.378906 34.371094 370.796875 C 34.453125 371.210938 34.578125 371.617188 34.742188 372.007812 C 34.902344 372.398438 35.105469 372.769531 35.339844 373.121094 C 35.578125 373.476562 35.84375 373.800781 36.144531 374.101562 C 36.445312 374.398438 36.773438 374.667969 37.125 374.902344 C 37.476562 375.140625 37.847656 375.339844 38.242188 375.5 C 38.632812 375.664062 39.035156 375.785156 39.453125 375.871094 C 39.867188 375.953125 40.289062 375.996094 40.714844 375.996094 L 131.855469 375.996094 C 132.28125 375.996094 132.703125 375.957031 133.121094 375.875 C 133.539062 375.792969 133.945312 375.671875 134.339844 375.511719 C 134.734375 375.351562 135.109375 375.152344 135.464844 374.917969 C 135.816406 374.679688 136.148438 374.414062 136.449219 374.113281 C 136.75 373.8125 137.019531 373.488281 137.257812 373.132812 C 137.496094 372.78125 137.699219 372.410156 137.863281 372.015625 C 138.027344 371.621094 138.152344 371.21875 138.238281 370.800781 C 138.320312 370.382812 138.363281 369.960938 138.367188 369.535156 L 138.367188 345.167969 C 138.367188 344.738281 138.328125 344.316406 138.246094 343.894531 C 138.164062 343.476562 138.039062 343.066406 137.878906 342.671875 C 137.714844 342.277344 137.515625 341.898438 137.277344 341.542969 C 137.039062 341.1875 136.769531 340.859375 136.46875 340.554688 C 136.164062 340.253906 135.835938 339.984375 135.480469 339.746094 C 135.121094 339.507812 134.746094 339.308594 134.351562 339.144531 C 133.957031 338.980469 133.546875 338.859375 133.128906 338.777344 C 132.707031 338.695312 132.285156 338.65625 131.855469 338.65625 C 131.429688 338.660156 131.007812 338.703125 130.589844 338.785156 C 130.175781 338.871094 129.769531 338.996094 129.375 339.160156 C 128.984375 339.324219 128.609375 339.527344 128.257812 339.765625 C 127.90625 340 127.578125 340.273438 127.277344 340.574219 C 126.976562 340.875 126.710938 341.203125 126.476562 341.558594 C 126.238281 341.914062 126.042969 342.289062 125.878906 342.683594 C 125.71875 343.078125 125.597656 343.484375 125.515625 343.902344 C 125.433594 344.320312 125.394531 344.742188 125.398438 345.167969 L 125.398438 363.027344 L 47.222656 363.027344 L 47.222656 285.664062 L 86.855469 285.664062 C 87.28125 285.664062 87.707031 285.625 88.125 285.542969 C 88.546875 285.460938 88.953125 285.335938 89.351562 285.175781 C 89.746094 285.011719 90.121094 284.8125 90.476562 284.574219 C 90.832031 284.335938 91.164062 284.066406 91.464844 283.765625 C 91.769531 283.460938 92.039062 283.132812 92.273438 282.777344 C 92.511719 282.417969 92.714844 282.042969 92.875 281.648438 C 93.039062 281.253906 93.160156 280.84375 93.242188 280.425781 C 93.324219 280.003906 93.367188 279.582031 93.363281 279.152344 C 93.363281 278.726562 93.320312 278.304688 93.234375 277.886719 C 93.152344 277.472656 93.027344 277.066406 92.863281 276.671875 C 92.695312 276.28125 92.496094 275.90625 92.257812 275.554688 C 92.019531 275.203125 91.75 274.875 91.449219 274.574219 C 91.144531 274.273438 90.816406 274.007812 90.460938 273.773438 C 90.105469 273.535156 89.730469 273.339844 89.339844 273.175781 C 88.945312 273.015625 88.539062 272.894531 88.121094 272.8125 C 87.703125 272.730469 87.28125 272.691406 86.855469 272.691406 Z M 141.949219 273.59375 C 141.09375 273.671875 140.285156 273.910156 139.523438 274.308594 C 138.761719 274.707031 138.105469 275.238281 137.554688 275.898438 L 96.050781 325.445312 L 81.6875 308.121094 C 81.414062 307.792969 81.117188 307.496094 80.789062 307.230469 C 80.457031 306.964844 80.105469 306.730469 79.730469 306.53125 C 79.355469 306.335938 78.96875 306.175781 78.5625 306.050781 C 78.15625 305.929688 77.742188 305.851562 77.320312 305.808594 C 76.898438 305.769531 76.476562 305.769531 76.054688 305.8125 C 75.632812 305.855469 75.21875 305.9375 74.8125 306.058594 C 74.410156 306.183594 74.019531 306.34375 73.644531 306.542969 C 73.273438 306.742188 72.921875 306.976562 72.59375 307.246094 C 72.265625 307.515625 71.964844 307.816406 71.695312 308.148438 C 71.425781 308.480469 71.191406 308.832031 70.992188 309.210938 C 70.789062 309.585938 70.628906 309.980469 70.507812 310.390625 C 70.386719 310.796875 70.304688 311.214844 70.265625 311.640625 C 70.222656 312.0625 70.226562 312.488281 70.269531 312.914062 C 70.3125 313.335938 70.398438 313.753906 70.523438 314.160156 C 70.648438 314.570312 70.816406 314.960938 71.019531 315.335938 C 71.222656 315.710938 71.457031 316.0625 71.730469 316.390625 L 91.070312 339.707031 C 91.375 340.074219 91.714844 340.398438 92.09375 340.6875 C 92.46875 340.980469 92.871094 341.222656 93.300781 341.425781 C 93.730469 341.625 94.179688 341.777344 94.640625 341.882812 C 95.105469 341.984375 95.574219 342.035156 96.050781 342.035156 C 96.523438 342.035156 96.992188 341.984375 97.457031 341.882812 C 97.921875 341.777344 98.367188 341.625 98.796875 341.425781 C 99.226562 341.222656 99.628906 340.980469 100.007812 340.6875 C 100.382812 340.398438 100.722656 340.074219 101.027344 339.707031 L 147.511719 284.230469 C 147.785156 283.90625 148.023438 283.554688 148.226562 283.179688 C 148.433594 282.804688 148.597656 282.414062 148.726562 282.007812 C 148.855469 281.601562 148.941406 281.1875 148.984375 280.761719 C 149.03125 280.335938 149.035156 279.914062 148.996094 279.488281 C 148.957031 279.0625 148.878906 278.648438 148.757812 278.238281 C 148.636719 277.828125 148.480469 277.433594 148.28125 277.058594 C 148.082031 276.679688 147.847656 276.324219 147.582031 275.992188 C 147.3125 275.664062 147.015625 275.359375 146.6875 275.085938 C 146.027344 274.535156 145.289062 274.128906 144.46875 273.867188 C 143.648438 273.609375 142.808594 273.515625 141.949219 273.59375 Z M 188.726562 317.835938 C 188.300781 317.835938 187.878906 317.878906 187.460938 317.964844 C 187.042969 318.046875 186.636719 318.171875 186.246094 318.335938 C 185.851562 318.503906 185.480469 318.703125 185.125 318.941406 C 184.773438 319.179688 184.445312 319.449219 184.148438 319.75 C 183.847656 320.054688 183.578125 320.382812 183.34375 320.738281 C 183.109375 321.09375 182.910156 321.464844 182.75 321.859375 C 182.589844 322.253906 182.46875 322.660156 182.386719 323.078125 C 182.304688 323.496094 182.265625 323.917969 182.265625 324.34375 C 182.265625 324.769531 182.308594 325.1875 182.394531 325.601562 C 182.476562 326.019531 182.601562 326.421875 182.765625 326.8125 C 182.925781 327.203125 183.125 327.574219 183.363281 327.925781 C 183.597656 328.277344 183.867188 328.605469 184.164062 328.90625 C 184.464844 329.203125 184.789062 329.472656 185.144531 329.707031 C 185.496094 329.941406 185.867188 330.144531 186.257812 330.304688 C 186.648438 330.46875 187.050781 330.589844 187.46875 330.675781 C 187.882812 330.757812 188.300781 330.800781 188.726562 330.804688 L 335.066406 330.804688 C 335.492188 330.804688 335.914062 330.765625 336.332031 330.683594 C 336.75 330.601562 337.15625 330.480469 337.550781 330.320312 C 337.945312 330.160156 338.316406 329.960938 338.671875 329.726562 C 339.027344 329.488281 339.355469 329.222656 339.660156 328.921875 C 339.960938 328.621094 340.230469 328.296875 340.46875 327.941406 C 340.707031 327.589844 340.910156 327.21875 341.074219 326.824219 C 341.238281 326.429688 341.363281 326.027344 341.445312 325.609375 C 341.53125 325.191406 341.574219 324.769531 341.578125 324.34375 C 341.578125 323.917969 341.539062 323.492188 341.457031 323.074219 C 341.375 322.652344 341.25 322.246094 341.085938 321.847656 C 340.925781 321.453125 340.722656 321.078125 340.488281 320.722656 C 340.25 320.367188 339.980469 320.035156 339.675781 319.734375 C 339.375 319.429688 339.046875 319.160156 338.6875 318.921875 C 338.332031 318.6875 337.957031 318.484375 337.5625 318.324219 C 337.164062 318.160156 336.757812 318.039062 336.335938 317.953125 C 335.917969 317.871094 335.492188 317.832031 335.066406 317.835938 Z M 188.726562 317.835938 " fill-opacity="1" fill-rule="nonzero"/></svg>